<svg width="24" height="18" viewBox="0 0 24 18" fill="none" xmlns="http://www.w3.org/2000/svg">
<path fill-rule="evenodd" clip-rule="evenodd" d="M9.58613 12.4369V5.70275C11.9768 6.82767 13.8283 7.91436 16.0181 9.08595C14.212 10.0876 11.9768 11.2115 9.58613 12.4369ZM22.9092 2.35353C22.4968 1.81022 21.794 1.3873 21.0457 1.24728C18.8463 0.829624 5.12518 0.828436 2.92698 1.24728C2.32693 1.35977 1.7926 1.63167 1.3336 2.05412C-0.600435 3.8492 0.00559941 13.4756 0.471777 15.035C0.667809 15.7099 0.921228 16.1967 1.24038 16.5162C1.65157 16.9387 2.21456 17.2295 2.86123 17.36C4.67214 17.7346 14.0016 17.944 21.0074 17.4162C21.6529 17.3037 22.2243 17.0035 22.6749 16.5631C24.4631 14.7752 24.3412 4.60815 22.9092 2.35353Z" fill="#666666"/>
</svg>
