<svg width="21" height="18" viewBox="0 0 21 18" fill="none" xmlns="http://www.w3.org/2000/svg">
<path d="M6.21191 0.845215C7.4687 0.936683 8.82153 1.5544 10.1533 2.87744L10.5059 3.22705L10.8584 2.87744C12.1898 1.55479 13.5409 0.938509 14.7959 0.849121C16.2109 0.74837 17.4702 1.32104 18.3926 2.24463C20.2283 4.08323 20.7652 7.36312 18.5371 9.60107L18.5361 9.60205C18.5347 9.60352 18.5322 9.60525 18.5293 9.60791V9.60889L10.6484 16.7778C10.5671 16.8516 10.4446 16.8516 10.3633 16.7778L2.48242 9.60889V9.60791C2.48008 9.60578 2.47724 9.60372 2.47461 9.60107C0.232478 7.34906 0.768901 4.06843 2.60938 2.23291C3.53363 1.31131 4.79509 0.742201 6.21191 0.845215Z" stroke="black"/>
</svg>
