<svg width="22" height="25" viewBox="0 0 22 25" fill="none" xmlns="http://www.w3.org/2000/svg">
<path d="M11.5258 0.353506C12.836 0.333496 14.1366 0.343901 15.4364 0.333496C15.4796 1.95905 16.1391 3.42214 17.1884 4.50584L17.1868 4.50424C18.3161 5.52152 19.7856 6.18103 21.4056 6.29308L21.428 6.29468V10.3254C19.8977 10.2869 18.4586 9.93398 17.1612 9.32729L17.2268 9.35451C16.5993 9.05276 16.0687 8.74302 15.5645 8.39726L15.6061 8.42447C15.5965 11.345 15.6157 14.2656 15.5861 17.1758C15.5036 18.6588 15.0106 20.0115 14.2198 21.1408L14.2358 21.116C12.9136 23.0097 10.7718 24.2527 8.33628 24.3263H8.32507C8.22663 24.3311 8.11057 24.3335 7.99372 24.3335C6.60907 24.3335 5.31487 23.9477 4.21195 23.2778L4.24397 23.2962C2.23663 22.0884 0.851986 20.0219 0.595866 17.6184L0.592665 17.5855C0.572655 17.0853 0.563051 16.5851 0.58306 16.0953C0.975243 12.2703 4.17994 9.31129 8.07536 9.31129C8.51316 9.31129 8.94216 9.3489 9.35916 9.42014L9.31433 9.41373C9.33434 10.8936 9.27432 12.3743 9.27432 13.8542C8.93576 13.7317 8.54518 13.6605 8.13779 13.6605C6.64269 13.6605 5.37089 14.6162 4.90027 15.9504L4.89307 15.9744C4.78662 16.3162 4.72499 16.7091 4.72499 17.1157C4.72499 17.2806 4.7354 17.4439 4.75461 17.604L4.75301 17.5847C5.01873 19.2223 6.42259 20.4581 8.11538 20.4581C8.1642 20.4581 8.21222 20.4573 8.26024 20.4549H8.25304C9.42399 20.4197 10.4405 19.7898 11.0151 18.8589L11.0231 18.8445C11.2368 18.5468 11.3833 18.1866 11.4321 17.7952L11.4329 17.784C11.533 15.9936 11.493 14.2136 11.5026 12.4231C11.5122 8.39246 11.493 4.37138 11.5226 0.351104L11.5258 0.353506Z" fill="#666666"/>
</svg>
