<svg width="24" height="25" viewBox="0 0 24 25" fill="none" xmlns="http://www.w3.org/2000/svg">
<path fill-rule="evenodd" clip-rule="evenodd" d="M11.8512 0.333496C5.27881 0.333496 0 5.65507 0 12.2837C0 17.2037 2.88841 21.3208 7.07161 23.229C7.07161 20.988 7.05599 21.2768 8.76359 13.9899C7.82519 12.0962 8.55481 8.96963 10.656 8.96963C13.572 8.96963 11.5908 13.2929 11.2536 14.9942C10.9548 16.2999 11.9508 17.3046 13.146 17.3046C15.4368 17.3046 16.9296 14.3918 16.9296 10.9782C16.9296 8.36694 15.138 6.45889 12.0504 6.45889C6.56041 6.45889 5.16841 12.573 7.07161 14.4921C7.55041 15.2169 7.07161 15.2508 7.07161 16.1995C6.73921 17.2026 4.0836 15.7445 4.0836 11.9825C4.0836 8.56778 6.8724 4.55166 12.5484 4.55166C17.0292 4.55166 20.0172 7.865 20.0172 11.3802C20.0172 16.0994 17.4276 19.5142 13.644 19.5142C12.3492 19.5142 11.154 18.8106 10.7556 18.0071C10.032 20.8217 9.88559 22.2486 8.76359 23.8313C9.85919 24.1326 10.9548 24.3335 12.15 24.3335C18.7224 24.3335 24 19.0119 24 12.3845C23.7024 5.65542 18.4236 0.333496 11.8512 0.333496Z" fill="#666666"/>
</svg>
