<svg width="24" height="25" viewBox="0 0 24 25" fill="none" xmlns="http://www.w3.org/2000/svg">
<path d="M16.8499 0.333496H7.15014C5.25425 0.334941 3.43642 1.08869 2.09582 2.42923C0.755225 3.76976 0.00144471 5.58751 0 7.48331V17.1826C0.00115577 19.0786 0.754809 20.8966 2.09544 22.2374C3.43607 23.5782 5.25406 24.3321 7.15014 24.3335H16.8499C18.7458 24.3318 20.5637 23.5778 21.9042 22.2371C23.2448 20.8964 23.9986 19.0785 24 17.1826V7.48331C23.9991 5.58733 23.2455 3.76925 21.9048 2.42859C20.5641 1.08792 18.7459 0.334363 16.8499 0.333496ZM21.5868 17.1826C21.5865 18.4388 21.0873 19.6434 20.1991 20.5316C19.3108 21.4199 18.1061 21.919 16.8499 21.9193H7.15014C6.52813 21.9193 5.91221 21.7968 5.33756 21.5587C4.76291 21.3207 4.24078 20.9718 3.801 20.5319C3.36123 20.092 3.01241 19.5699 2.77447 18.9952C2.53654 18.4205 2.41415 17.8046 2.41429 17.1826V7.48331C2.41415 6.86138 2.53655 6.24551 2.77449 5.67089C3.01244 5.09628 3.36128 4.57417 3.80107 4.13439C4.24086 3.69462 4.763 3.3458 5.33764 3.10787C5.91229 2.86993 6.52818 2.74753 7.15014 2.74768H16.8499C18.1058 2.74797 19.3102 3.24699 20.1983 4.13503C21.0864 5.02307 21.5854 6.22743 21.5857 7.48331L21.5868 17.1826Z" fill="#666666"/>
<path d="M12.0005 6.12859C8.57711 6.12859 5.79517 8.9115 5.79517 12.3337C5.79517 15.7559 8.5782 18.5388 12.0005 18.5388C15.4229 18.5388 18.2059 15.7559 18.2059 12.3337C18.2059 8.9115 15.424 6.12859 12.0005 6.12859ZM12.0005 16.1246C10.9951 16.1247 10.0307 15.7255 9.31968 15.0146C8.60861 14.3038 8.20906 13.3396 8.20891 12.3342C8.20877 11.3288 8.60804 10.3645 9.31891 9.65349C10.0298 8.94245 10.994 8.54292 11.9994 8.54277C13.0049 8.54263 13.9692 8.94189 14.6803 9.65272C15.3914 10.3635 15.7909 11.3277 15.7911 12.3331C15.7912 13.3385 15.3919 14.3028 14.6811 15.0139C13.9702 15.7249 13.006 16.1244 12.0005 16.1246ZM18.219 4.6875C18.513 4.68772 18.8003 4.77508 19.0447 4.93854C19.2891 5.10201 19.4795 5.33424 19.5919 5.6059C19.7043 5.87755 19.7337 6.17643 19.6763 6.46476C19.6189 6.75309 19.4773 7.01793 19.2694 7.22581C19.0615 7.43369 18.7966 7.57529 18.5083 7.63269C18.2199 7.6901 17.921 7.66075 17.6494 7.54834C17.3777 7.43594 17.1455 7.24553 16.982 7.00117C16.8185 6.75682 16.7312 6.46949 16.7309 6.1755C16.7309 5.35514 17.2873 4.6875 18.219 4.6875Z" fill="#666666"/>
</svg>
